<svg width="99" height="99" viewBox="0 0 99 99" fill="none" xmlns="http://www.w3.org/2000/svg">
<circle cx="49.5" cy="49.5" r="49.5" fill="#D1C9BA"/>
<path d="M64.6389 52.5C63.6885 52.5 62.7771 52.1049 62.1051 51.4017C61.4331 50.6984 61.0556 49.7446 61.0556 48.75C61.0556 47.7554 61.4331 46.8016 62.1051 46.0983C62.7771 45.3951 63.6885 45 64.6389 45C65.5892 45 66.5007 45.3951 67.1727 46.0983C67.8447 46.8016 68.2222 47.7554 68.2222 48.75C68.2222 49.7446 67.8447 50.6984 67.1727 51.4017C66.5007 52.1049 65.5892 52.5 64.6389 52.5ZM57.4722 42.5C56.5219 42.5 55.6104 42.1049 54.9384 41.4017C54.2664 40.6984 53.8889 39.7446 53.8889 38.75C53.8889 37.7554 54.2664 36.8016 54.9384 36.0983C55.6104 35.3951 56.5219 35 57.4722 35C58.4226 35 59.334 35.3951 60.006 36.0983C60.678 36.8016 61.0556 37.7554 61.0556 38.75C61.0556 39.7446 60.678 40.6984 60.006 41.4017C59.334 42.1049 58.4226 42.5 57.4722 42.5ZM45.5278 42.5C44.5774 42.5 43.666 42.1049 42.994 41.4017C42.322 40.6984 41.9444 39.7446 41.9444 38.75C41.9444 37.7554 42.322 36.8016 42.994 36.0983C43.666 35.3951 44.5774 35 45.5278 35C46.4781 35 47.3896 35.3951 48.0616 36.0983C48.7336 36.8016 49.1111 37.7554 49.1111 38.75C49.1111 39.7446 48.7336 40.6984 48.0616 41.4017C47.3896 42.1049 46.4781 42.5 45.5278 42.5ZM38.3611 52.5C37.4108 52.5 36.4993 52.1049 35.8273 51.4017C35.1553 50.6984 34.7778 49.7446 34.7778 48.75C34.7778 47.7554 35.1553 46.8016 35.8273 46.0983C36.4993 45.3951 37.4108 45 38.3611 45C39.3115 45 40.2229 45.3951 40.8949 46.0983C41.5669 46.8016 41.9444 47.7554 41.9444 48.75C41.9444 49.7446 41.5669 50.6984 40.8949 51.4017C40.2229 52.1049 39.3115 52.5 38.3611 52.5ZM51.5 30C45.7978 30 40.3292 32.3705 36.2972 36.5901C32.2652 40.8097 30 46.5326 30 52.5C30 58.4674 32.2652 64.1903 36.2972 68.4099C40.3292 72.6295 45.7978 75 51.5 75C52.4504 75 53.3618 74.6049 54.0338 73.9016C54.7058 73.1984 55.0833 72.2446 55.0833 71.25C55.0833 70.275 54.725 69.4 54.1517 68.75C53.6022 68.075 53.2439 67.2 53.2439 66.25C53.2439 65.2554 53.6214 64.3016 54.2934 63.5984C54.9654 62.8951 55.8769 62.5 56.8272 62.5H61.0556C64.2234 62.5 67.2615 61.183 69.5016 58.8388C71.7416 56.4946 73 53.3152 73 50C73 38.95 63.3728 30 51.5 30Z" fill="white"/>
</svg>
