<svg width="99" height="99" viewBox="0 0 99 99" fill="none" xmlns="http://www.w3.org/2000/svg">
<circle cx="49.5" cy="49.5" r="49.5" fill="#E2DDB3"/>
<path d="M41.9 63.6375C41.9 64.5281 42.6219 65.25 43.5125 65.25C44.4031 65.25 45.125 64.5281 45.125 63.6375V52.9186C45.125 51.2164 46.3798 49.7928 47.4363 48.4583C48.0454 47.6887 48.35 46.761 48.35 45.675V38.2C48.35 37.6063 47.8687 37.125 47.275 37.125C46.6813 37.125 46.2 37.6063 46.2 38.2V41.9438C46.2 42.389 45.839 42.75 45.3938 42.75C44.9485 42.75 44.5875 42.389 44.5875 41.9438V38.2C44.5875 37.6063 44.1062 37.125 43.5125 37.125C42.9188 37.125 42.4375 37.6063 42.4375 38.2V41.9438C42.4375 42.389 42.0765 42.75 41.6313 42.75C41.186 42.75 40.825 42.389 40.825 41.9438V38.2C40.825 37.6063 40.3437 37.125 39.75 37.125C39.1563 37.125 38.675 37.6063 38.675 38.2V45.675C38.675 46.7625 38.9796 47.691 39.5888 48.4605C40.6445 49.7942 41.9 51.2165 41.9 52.9175V63.6375ZM54.8 63.6375C54.8 64.5281 55.5219 65.25 56.4125 65.25C57.3031 65.25 58.025 64.5281 58.025 63.6375V54.0323C58.025 52.1491 59.233 50.5001 60.2941 48.9443C60.4746 48.6797 60.6413 48.3962 60.7942 48.0938C61.4578 46.7812 61.7889 45.2437 61.7875 43.4812C61.7875 41.3438 61.2765 39.5625 60.2546 38.1375C59.2326 36.7125 57.9519 36 56.4125 36C54.8717 36 53.5903 36.7125 52.5683 38.1375C51.5463 39.5625 51.0361 41.3438 51.0375 43.4812C51.0375 45.2437 51.3693 46.7812 52.033 48.0938C52.1859 48.3962 52.3526 48.6798 52.533 48.9444C53.5933 50.4997 54.8 52.1483 54.8 54.0306V63.6375ZM34 72C31.2386 72 29 69.7614 29 67V32C29 29.2386 31.2386 27 34 27H67C69.7614 27 72 29.2386 72 32V67C72 69.7614 69.7614 72 67 72H34Z" fill="white"/>
</svg>
