<svg width="99" height="99" viewBox="0 0 99 99" fill="none" xmlns="http://www.w3.org/2000/svg">
<circle cx="49.5" cy="49.5" r="49.5" fill="#3884FD"/>
<path d="M35.2008 59.7007C32.4801 56.0901 31.0003 51.6256 31 47.0268V35.7381C35.534 33.2819 40.5646 32 45.6696 32C50.7747 32 55.8053 33.2819 60.3392 35.7381" stroke="white" stroke-width="3" stroke-linecap="round" stroke-linejoin="round"/>
<path d="M55.1125 76.8073C53.955 77.0812 52.7519 77.0639 51.602 76.757C50.4521 76.45 49.388 75.862 48.4971 75.0413C45.4019 72.248 43.11 68.6084 41.8774 64.5295C40.6449 60.4506 40.5204 56.0932 41.5179 51.9445L43.9325 41.8331C49.1768 40.4407 54.6693 40.4332 59.917 41.8112C65.1648 43.1891 70.0037 45.9096 73.9994 49.7283L71.5848 59.805C70.6114 63.9575 68.5561 67.7456 65.6478 70.7475C62.7395 73.7494 59.0924 75.8472 55.1125 76.8073Z" stroke="white" stroke-width="3" stroke-linecap="round" stroke-linejoin="round"/>
<path d="M47.9004 52.8088C48.3177 52.3516 48.8465 52.0228 49.4296 51.858C50.0127 51.6932 50.6277 51.6986 51.2081 51.8738C51.7761 52.0137 52.2987 52.3084 52.7227 52.728C53.1468 53.1477 53.4573 53.6773 53.6227 54.2631M60.9988 56.2369C61.4028 55.7825 61.9159 55.4501 62.4846 55.2745C63.0533 55.0989 63.6566 55.0866 64.2314 55.2388C64.8062 55.391 65.3314 55.7022 65.7519 56.1397C66.1725 56.5773 66.473 57.1251 66.6219 57.7259" stroke="white" stroke-width="3" stroke-linecap="round" stroke-linejoin="round"/>
</svg>
