<svg width="99" height="99" viewBox="0 0 99 99" fill="none" xmlns="http://www.w3.org/2000/svg">
<circle cx="49.5" cy="49.5" r="49.5" fill="#C6BB67"/>
<path d="M33.1667 41.9991L42.7222 31.9997L51.0833 46.9988L47.5 56.9982M26 70.7474C26.7436 71.5213 27.5587 71.9478 28.3889 71.9974C29.3194 72.0382 30.2406 71.6043 31.073 70.7332C31.9054 69.8621 32.624 68.58 33.1667 66.9977C33.7094 65.4153 34.4279 64.1332 35.2603 63.2621C36.0928 62.391 37.014 61.9572 37.9444 61.998C38.8749 61.9572 39.7961 62.391 40.6285 63.2621C41.461 64.1332 42.1795 65.4153 42.7222 66.9977C43.2649 68.58 43.9835 69.8621 44.8159 70.7332C45.6483 71.6043 46.5695 72.0382 47.5 71.9974C48.4305 72.0382 49.3517 71.6043 50.1841 70.7332C51.0165 69.8621 51.7351 68.58 52.2778 66.9977C52.8205 65.4153 53.539 64.1332 54.3715 63.2621C55.2039 62.391 56.1251 61.9572 57.0556 61.998C57.986 61.9572 58.9072 62.391 59.7397 63.2621C60.5721 64.1332 61.2906 65.4153 61.8333 66.9977C62.376 68.58 63.0946 69.8621 63.927 70.7332C64.7594 71.6043 65.6806 72.0382 66.6111 71.9974C67.4413 71.9478 68.2564 71.5213 69 70.7474M54.6667 31.9997C54.6667 33.3257 54.9184 34.5974 55.3664 35.535C55.8144 36.4727 56.422 36.9994 57.0556 36.9994C57.6891 36.9994 58.2968 36.4727 58.7448 35.535C59.1928 34.5974 59.4444 33.3257 59.4444 31.9997C59.4444 30.6737 59.1928 29.402 58.7448 28.4644C58.2968 27.5268 57.6891 27 57.0556 27C56.422 27 55.8144 27.5268 55.3664 28.4644C54.9184 29.402 54.6667 30.6737 54.6667 31.9997Z" stroke="white" stroke-width="4" stroke-linecap="round" stroke-linejoin="round"/>
</svg>
