<svg width="267" height="267" viewBox="0 0 267 267" fill="none" xmlns="http://www.w3.org/2000/svg">
<path fill-rule="evenodd" clip-rule="evenodd" d="M132.627 181.885C144.515 151.582 154.703 118.237 160.275 97.5057L201.051 90.6105C164.585 93.0395 118.284 102.759 91.3671 109.561C108.938 123.889 126.214 136.719 138.424 145.264L132.627 181.885ZM81.5237 101.396C55.561 79.4718 30.911 55.4002 23.1215 38.2602C9.09617 7.3988 44.2484 0.432542 63.5777 0.807087C44.1564 -2.22265 4.36695 1.63767 0.579209 41.3169C-8.02397 109.787 81.3121 168.884 129.004 190.888C119.362 214.231 108.84 234.693 98.8751 244.548C75.038 268.121 57.4454 235.909 51.6287 216.857C55.0393 236.846 71.261 274.589 108.863 265.654C175.162 252.105 200.728 143.461 205.289 90.3592C220.427 89.577 233.585 90.1812 242.527 92.9533C274.129 102.751 255.695 134.455 242.527 149.083C257.67 136.156 281.437 102.955 255.365 73.5629C211.122 20.4945 106.572 51.4511 59.8271 73.5629L81.5237 101.396Z" fill="#3884FD"/>
</svg>
