<svg width="144" height="139" viewBox="0 0 144 139" fill="none" xmlns="http://www.w3.org/2000/svg">
<path fill-rule="evenodd" clip-rule="evenodd" d="M71.1741 94.4546C77.5542 78.7178 83.0212 61.4013 86.0116 50.6357L107.894 47.0549C88.3244 48.3163 63.477 53.3635 49.0323 56.8963C58.4615 64.3366 67.7329 70.9992 74.2853 75.4369L71.1741 94.4546ZM43.7494 52.6556C29.8166 41.2702 16.5883 28.7698 12.4082 19.8689C4.88146 3.84225 23.7459 0.224622 34.119 0.41913C23.6965 -1.15425 2.34353 0.850456 0.310833 21.4562C-4.30606 57.0136 43.6362 87.7031 69.2301 99.1299C64.0557 111.252 58.4088 121.878 53.0613 126.996C40.2691 139.238 30.828 122.51 27.7065 112.616C29.5368 122.996 38.2421 142.597 58.4213 137.956C94.0005 130.92 107.721 74.5005 110.168 46.9245C118.292 46.5182 125.354 46.832 130.152 48.2716C147.111 53.3594 137.218 69.824 130.152 77.4204C138.278 70.7073 151.033 53.4653 137.042 38.202C113.299 10.6431 57.1918 26.7191 32.1062 38.202L43.7494 52.6556Z" fill="#3884FD"/>
</svg>
