<svg width="155" height="155" viewBox="0 0 155 155" fill="none" xmlns="http://www.w3.org/2000/svg">
<path d="M154.203 127.017L132.253 105.068C131.805 104.626 131.217 104.355 130.59 104.301C129.964 104.247 129.338 104.413 128.82 104.77L101.789 123.503C101.463 123.728 101.19 124.022 100.99 124.364C100.79 124.706 100.667 125.088 100.631 125.482C100.595 125.877 100.646 126.275 100.781 126.647C100.916 127.02 101.131 127.359 101.411 127.639L127.55 153.778C127.896 154.126 128.329 154.373 128.804 154.493C129.28 154.613 129.779 154.602 130.248 154.46C130.717 154.319 131.139 154.052 131.469 153.689C131.798 153.326 132.023 152.88 132.118 152.4L135.605 135.073L152.824 131.585C153.305 131.49 153.751 131.265 154.114 130.936C154.477 130.606 154.743 130.184 154.885 129.715C155.027 129.246 155.038 128.747 154.918 128.272C154.798 127.796 154.551 127.363 154.203 127.017Z" fill="url(#paint0_linear_470_901)"/>
<path d="M53.6729 123.503L26.6415 104.77C26.1241 104.413 25.4981 104.247 24.8715 104.301C24.2449 104.355 23.6568 104.626 23.2085 105.068L1.15092 127.017C0.803265 127.363 0.556134 127.796 0.435977 128.272C0.315821 128.747 0.327161 129.246 0.468785 129.715C0.610409 130.184 0.876984 130.606 1.23998 130.936C1.60297 131.265 2.04872 131.49 2.52952 131.585L19.8566 135.073L23.3437 152.4C23.4393 152.88 23.6638 153.326 23.9933 153.689C24.3227 154.052 24.7447 154.319 25.214 154.46C25.6833 154.602 26.1823 154.613 26.6575 154.493C27.1328 154.373 27.5664 154.126 27.912 153.778L54.0513 127.639C54.3314 127.359 54.5463 127.02 54.681 126.647C54.8156 126.275 54.8667 125.877 54.8306 125.482C54.7945 125.088 54.6721 124.706 54.472 124.364C54.272 124.022 53.9992 123.728 53.6729 123.503Z" fill="url(#paint1_linear_470_901)"/>
<path d="M150.662 71.846C150.662 65.0341 139.038 61.2497 138.309 58.0059C137.579 54.7622 146.418 46.1932 143.445 40.1652C140.471 34.1372 128.442 35.7861 126.334 33.083C124.225 30.3799 128.55 19.0267 123.252 14.7828C117.954 10.5388 107.844 17.3237 104.709 15.8099C101.573 14.2962 100.6 2.29425 93.896 0.672368C87.1922 -0.949515 81.3264 9.67382 77.6771 9.67382C74.0279 9.67382 67.9188 -0.787327 61.4583 0.672368C54.9978 2.13206 53.7544 14.3503 50.6457 15.8099C47.5371 17.2696 37.4004 10.5659 32.1022 14.7828C26.8041 18.9996 31.1561 30.3799 29.0206 33.083C26.8852 35.7861 14.8292 34.0021 11.9098 40.1652C8.99037 46.3284 17.8296 54.573 17.0457 58.0059C16.2618 61.4389 4.69238 65.0071 4.69238 71.846C4.69238 78.685 16.3159 82.4423 17.0457 85.6861C17.7756 88.9298 8.93631 97.4988 11.9098 103.527C14.8832 109.555 26.9122 107.906 29.0747 110.609C31.2372 113.312 26.8581 124.665 32.1563 128.909C37.4544 133.153 47.5642 126.368 50.6998 127.882C53.8354 129.396 54.8086 141.398 61.5124 143.02C68.2161 144.642 74.0279 134.018 77.6771 134.018C80.7587 134.018 86.9219 143.155 92.5985 143.155C93.0438 143.162 93.4883 143.117 93.923 143.02C100.519 141.506 101.627 129.342 104.736 127.882C107.844 126.422 117.981 133.126 123.279 128.909C128.577 124.692 124.225 113.312 126.361 110.609C128.496 107.906 140.606 109.582 143.526 103.527C146.445 97.4718 137.606 89.1191 138.39 85.6861C139.174 82.2531 150.662 78.685 150.662 71.846Z" fill="url(#paint2_linear_470_901)"/>
<path d="M77.677 123.206C106.042 123.206 129.037 100.211 129.037 71.846C129.037 43.4808 106.042 20.4863 77.677 20.4863C49.3119 20.4863 26.3174 43.4808 26.3174 71.846C26.3174 100.211 49.3119 123.206 77.677 123.206Z" fill="url(#paint3_linear_470_901)"/>
<path d="M114.039 57.3719L91.1039 54.037L80.8747 33.2748C80.5808 32.6685 80.1219 32.1572 79.5506 31.7995C78.9793 31.4417 78.3186 31.252 77.6444 31.252C76.9701 31.252 76.3095 31.4417 75.7382 31.7995C75.1669 32.1572 74.708 32.6685 74.4141 33.2748L64.1849 54.037L41.2498 57.3719C40.5895 57.4677 39.969 57.7456 39.458 58.1743C38.947 58.6029 38.5657 59.1654 38.357 59.7986C38.1482 60.4317 38.1202 61.1105 38.2762 61.7586C38.4321 62.4068 38.7659 62.9987 39.2399 63.4679L55.8579 79.7119L51.9098 102.518C51.7873 103.184 51.8558 103.87 52.1073 104.498C52.3588 105.126 52.7831 105.671 53.3311 106.068C53.8791 106.466 54.5285 106.7 55.2043 106.745C55.8801 106.789 56.5546 106.641 57.15 106.319L77.6444 95.5615L98.1388 106.319C98.7342 106.641 99.4087 106.789 100.084 106.745C100.76 106.7 101.41 106.466 101.958 106.068C102.506 105.671 102.93 105.126 103.181 104.498C103.433 103.87 103.501 103.184 103.379 102.518L99.4309 79.7119L116.049 63.5396C116.544 63.0734 116.897 62.4761 117.065 61.8174C117.234 61.1587 117.212 60.4657 117.001 59.8192C116.79 59.1727 116.4 58.5994 115.875 58.1661C115.351 57.7327 114.714 57.4573 114.039 57.3719Z" fill="#758BFD"/>
<path d="M70.0856 82.452C69.5123 82.452 68.919 82.3653 68.3056 82.192C67.6923 82.0053 67.119 81.732 66.5856 81.372C66.3723 81.2386 66.2323 81.0653 66.1656 80.852C66.099 80.6386 66.0856 80.432 66.1256 80.232C66.179 80.0186 66.2723 79.8386 66.4056 79.692C66.5523 79.532 66.7323 79.4386 66.9456 79.412C67.159 79.372 67.3923 79.4253 67.6456 79.572C68.099 79.8386 68.5256 80.0253 68.9256 80.132C69.3256 80.2386 69.7256 80.292 70.1256 80.292C70.899 80.292 71.5523 80.112 72.0856 79.752C72.619 79.392 73.019 78.852 73.2856 78.132C73.5656 77.3986 73.7056 76.4986 73.7056 75.432V73.932H73.9456C73.8523 74.5986 73.6323 75.1786 73.2856 75.672C72.939 76.1653 72.499 76.5453 71.9656 76.812C71.4323 77.0653 70.839 77.192 70.1856 77.192C69.3856 77.192 68.6656 76.9986 68.0256 76.612C67.399 76.2253 66.9056 75.692 66.5456 75.012C66.1856 74.3186 66.0056 73.5386 66.0056 72.672C66.0056 71.752 66.199 70.9386 66.5856 70.232C66.9856 69.5253 67.539 68.972 68.2456 68.572C68.9523 68.1586 69.759 67.952 70.6656 67.952C71.839 67.952 72.8323 68.2253 73.6456 68.772C74.459 69.3186 75.079 70.1186 75.5056 71.172C75.9323 72.212 76.1456 73.472 76.1456 74.952C76.1456 76.152 76.0056 77.2186 75.7256 78.152C75.459 79.072 75.0656 79.852 74.5456 80.492C74.0256 81.132 73.3856 81.6186 72.6256 81.952C71.879 82.2853 71.0323 82.452 70.0856 82.452ZM70.8256 75.152C71.3056 75.152 71.7256 75.0453 72.0856 74.832C72.459 74.6053 72.7456 74.2986 72.9456 73.912C73.1456 73.512 73.2456 73.0586 73.2456 72.552C73.2456 72.032 73.1456 71.5786 72.9456 71.192C72.7456 70.8053 72.459 70.5053 72.0856 70.292C71.7256 70.0786 71.3056 69.972 70.8256 69.972C70.3456 69.972 69.9256 70.0786 69.5656 70.292C69.2056 70.5053 68.919 70.8053 68.7056 71.192C68.5056 71.5786 68.4056 72.032 68.4056 72.552C68.4056 73.0586 68.5056 73.512 68.7056 73.912C68.919 74.2986 69.2056 74.6053 69.5656 74.832C69.9256 75.0453 70.3456 75.152 70.8256 75.152ZM79.8378 82.252C79.4111 82.252 79.0978 82.1586 78.8978 81.972C78.7111 81.772 78.6178 81.4853 78.6178 81.112C78.6178 80.8853 78.6778 80.6653 78.7978 80.452C78.9178 80.2386 79.0911 80.012 79.3178 79.772L83.3378 75.492C83.9511 74.852 84.3911 74.272 84.6578 73.752C84.9245 73.2186 85.0578 72.6853 85.0578 72.152C85.0578 71.4853 84.8445 70.9786 84.4178 70.632C84.0045 70.2853 83.3978 70.112 82.5978 70.112C82.1445 70.112 81.6911 70.1786 81.2378 70.312C80.7845 70.432 80.3245 70.6453 79.8578 70.952C79.6178 71.112 79.3911 71.1786 79.1778 71.152C78.9778 71.1253 78.7978 71.0386 78.6378 70.892C78.4911 70.7453 78.3911 70.5653 78.3378 70.352C78.2845 70.1386 78.2911 69.9253 78.3578 69.712C78.4378 69.4853 78.5978 69.292 78.8378 69.132C79.4111 68.7453 80.0511 68.452 80.7578 68.252C81.4778 68.052 82.1978 67.952 82.9178 67.952C83.9311 67.952 84.7845 68.1053 85.4778 68.412C86.1711 68.7186 86.6978 69.1653 87.0578 69.752C87.4178 70.3386 87.5978 71.052 87.5978 71.892C87.5978 72.452 87.5045 72.9986 87.3178 73.532C87.1445 74.0653 86.8711 74.6053 86.4978 75.152C86.1378 75.6986 85.6645 76.2786 85.0778 76.892L81.3178 80.812V80.132H87.1978C87.5578 80.132 87.8311 80.2186 88.0178 80.392C88.2045 80.5653 88.2978 80.8253 88.2978 81.172C88.2978 81.5186 88.2045 81.7853 88.0178 81.972C87.8311 82.1586 87.5578 82.252 87.1978 82.252H79.8378Z" fill="white"/>
<defs>
<linearGradient id="paint0_linear_470_901" x1="114.683" y1="113.069" x2="140.958" y2="141.749" gradientUnits="userSpaceOnUse">
<stop stop-color="#758BFD"/>
<stop offset="1" stop-color="#286CD3"/>
</linearGradient>
<linearGradient id="paint1_linear_470_901" x1="41.3466" y1="111.204" x2="16.3696" y2="140.506" gradientUnits="userSpaceOnUse">
<stop stop-color="#758BFD"/>
<stop offset="1" stop-color="#670BFF"/>
</linearGradient>
<linearGradient id="paint2_linear_470_901" x1="77.6771" y1="0.537211" x2="77.6771" y2="143.155" gradientUnits="userSpaceOnUse">
<stop stop-color="#286CD3"/>
<stop offset="1" stop-color="#A356C7"/>
</linearGradient>
<linearGradient id="paint3_linear_470_901" x1="77.677" y1="20.4863" x2="77.677" y2="123.206" gradientUnits="userSpaceOnUse">
<stop stop-color="#FFC033"/>
<stop offset="1" stop-color="#EF8E2E"/>
</linearGradient>
</defs>
</svg>
