<svg width="99" height="99" viewBox="0 0 99 99" fill="none" xmlns="http://www.w3.org/2000/svg">
<circle cx="49.5" cy="49.5" r="49.5" fill="#489675"/>
<mask id="mask0_0_1" style="mask-type:luminance" maskUnits="userSpaceOnUse" x="29" y="22" width="41" height="49">
<path d="M41.8212 69C34.7139 69 29.8473 61.8308 32.4706 55.2254L36.8096 44.3001C38.6647 39.6293 45.2948 39.6838 47.0728 44.3845L49.9021 51.8648C50.843 54.3523 54.4021 54.2316 55.1724 51.6862C55.8882 49.3207 59.1014 48.9903 60.2835 51.1607L64.6688 59.212C67.0719 63.624 63.8783 69 58.8543 69H41.8212ZM62.475 35.8421C63.9005 35.8421 65.2677 35.2183 66.2757 34.1079C67.2837 32.9975 67.85 31.4914 67.85 29.9211C67.85 28.3507 67.2837 26.8446 66.2757 25.7342C65.2677 24.6238 63.9005 24 62.475 24C61.0495 24 59.6823 24.6238 58.6743 25.7342C57.6663 26.8446 57.1 28.3507 57.1 29.9211C57.1 31.4914 57.6663 32.9975 58.6743 34.1079C59.6823 35.2183 61.0495 35.8421 62.475 35.8421Z" fill="white" stroke="white" stroke-width="4" stroke-linejoin="round"/>
</mask>
<g mask="url(#mask0_0_1)">
<path d="M23.2031 45.0636C23.2031 31.0908 34.5303 19.7637 48.5031 19.7637C62.4759 19.7637 73.8031 31.0909 73.8031 45.0637V50.3058C73.8031 64.2786 62.4759 75.6058 48.5031 75.6058C34.5303 75.6058 23.2031 64.2786 23.2031 50.3058V45.0636Z" fill="white" stroke="white"/>
</g>
</svg>
