<svg width="99" height="99" viewBox="0 0 99 99" fill="none" xmlns="http://www.w3.org/2000/svg">
<circle cx="49.5" cy="49.5" r="49.5" fill="#485996"/>
<path d="M49.5 49.7143C46.3321 49.7143 43.294 48.5855 41.054 46.5761C38.814 44.5668 37.5556 41.8416 37.5556 39H42.3333C42.3333 40.705 43.0884 42.3401 44.4324 43.5457C45.7764 44.7513 47.5993 45.4286 49.5 45.4286C51.4007 45.4286 53.2236 44.7513 54.5676 43.5457C55.9116 42.3401 56.6667 40.705 56.6667 39H61.4444C61.4444 41.8416 60.186 44.5668 57.946 46.5761C55.706 48.5855 52.6679 49.7143 49.5 49.7143ZM49.5 28.2857C51.4007 28.2857 53.2236 28.963 54.5676 30.1686C55.9116 31.3742 56.6667 33.0093 56.6667 34.7143H42.3333C42.3333 33.0093 43.0884 31.3742 44.4324 30.1686C45.7764 28.963 47.5993 28.2857 49.5 28.2857ZM66.2222 34.7143H61.4444C61.4444 33.3073 61.1355 31.914 60.5352 30.6141C59.935 29.3142 59.0551 28.1331 57.946 27.1381C56.8369 26.1432 55.5201 25.354 54.0709 24.8156C52.6218 24.2771 51.0686 24 49.5 24C46.3321 24 43.294 25.1288 41.054 27.1381C38.814 29.1475 37.5556 31.8727 37.5556 34.7143H32.7778C30.1261 34.7143 28 36.6214 28 39V64.7143C28 65.8509 28.5034 66.941 29.3994 67.7447C30.2954 68.5485 31.5106 69 32.7778 69H66.2222C67.4894 69 68.7046 68.5485 69.6006 67.7447C70.4966 66.941 71 65.8509 71 64.7143V39C71 37.8634 70.4966 36.7733 69.6006 35.9695C68.7046 35.1658 67.4894 34.7143 66.2222 34.7143Z" fill="white"/>
</svg>
