<svg width="99" height="99" viewBox="0 0 99 99" fill="none" xmlns="http://www.w3.org/2000/svg">
<circle cx="49.5" cy="49.5" r="49.5" fill="#ABABAB"/>
<path d="M49.5 39.2222C48.4097 39.2222 47.364 38.7891 46.593 38.0181C45.822 37.2471 45.3889 36.2014 45.3889 35.1111C45.3889 34.0208 45.822 32.9751 46.593 32.2041C47.364 31.4331 48.4097 31 49.5 31C50.5903 31 51.636 31.4331 52.407 32.2041C53.178 32.9751 53.6111 34.0208 53.6111 35.1111C53.6111 36.2014 53.178 37.2471 52.407 38.0181C51.636 38.7891 50.5903 39.2222 49.5 39.2222ZM49.5 39.2222V47.4444M49.5 47.4444C51.1355 47.4444 52.704 48.0941 53.8605 49.2506C55.017 50.4071 55.6667 51.9756 55.6667 53.6111C55.6667 55.2466 55.017 56.8151 53.8605 57.9716C52.704 59.1281 51.1355 59.7778 49.5 59.7778C47.8645 59.7778 46.296 59.1281 45.1395 57.9716C43.983 56.8151 43.3333 55.2466 43.3333 53.6111C43.3333 51.9756 43.983 50.4071 45.1395 49.2506C46.296 48.0941 47.8645 47.4444 49.5 47.4444ZM38.6056 61.4222L44.3611 57.3111M60.3944 61.4222L54.6389 57.3111M31 63.8889C31 64.9792 31.4331 66.0249 32.2041 66.7959C32.9751 67.5669 34.0208 68 35.1111 68C36.2014 68 37.2471 67.5669 38.0181 66.7959C38.7891 66.0249 39.2222 64.9792 39.2222 63.8889C39.2222 62.7986 38.7891 61.7529 38.0181 60.9819C37.2471 60.2109 36.2014 59.7778 35.1111 59.7778C34.0208 59.7778 32.9751 60.2109 32.2041 60.9819C31.4331 61.7529 31 62.7986 31 63.8889ZM59.7778 63.8889C59.7778 64.9792 60.2109 66.0249 60.9819 66.7959C61.7529 67.5669 62.7986 68 63.8889 68C64.9792 68 66.0249 67.5669 66.7959 66.7959C67.5669 66.0249 68 64.9792 68 63.8889C68 62.7986 67.5669 61.7529 66.7959 60.9819C66.0249 60.2109 64.9792 59.7778 63.8889 59.7778C62.7986 59.7778 61.7529 60.2109 60.9819 60.9819C60.2109 61.7529 59.7778 62.7986 59.7778 63.8889Z" stroke="white" stroke-width="3" stroke-linecap="round" stroke-linejoin="round"/>
</svg>
