<svg width="99" height="99" viewBox="0 0 99 99" fill="none" xmlns="http://www.w3.org/2000/svg">
<circle cx="49.5" cy="49.5" r="49.5" fill="#3F3D56"/>
<path d="M36.3529 64.6351L28.8235 60.5115L31.2941 58.0374L37.1765 58.8621L46.3529 49.6724L28 39.658L31.2941 36.3592L53.7647 42.1322L63 33.0014C63.6667 32.3338 64.5004 32 65.5012 32C66.502 32 67.3349 32.3338 68 33.0014C68.6667 33.6691 69 34.504 69 35.5062C69 36.5084 68.6667 37.3426 68 38.0086L58.8235 47.1983L64.5882 69.7011L61.2941 73L51.2941 54.6207L42.1176 63.8103L42.9412 69.7011L40.4706 72.1753L36.3529 64.6351Z" fill="white"/>
</svg>
