<svg width="933" height="655" viewBox="0 0 933 655" fill="none" xmlns="http://www.w3.org/2000/svg">
<path d="M0 0H933V379C933 395.569 919.569 409 903 409H30C13.4314 409 0 395.569 0 379V0Z" fill="url(#paint0_linear_0_1)"/>
<path fill-rule="evenodd" clip-rule="evenodd" d="M463.661 401.419C500.234 311.213 531.572 211.95 548.714 150.239L674.129 129.717C561.96 136.948 419.544 165.876 336.75 186.126C390.797 228.772 443.939 266.961 481.496 292.397L463.661 401.419ZM306.468 161.817C226.607 96.5573 150.783 24.9056 126.823 -26.1136C83.6803 -117.977 191.809 -138.713 251.267 -137.598C191.526 -146.616 69.133 -135.125 57.4819 -17.0149C31.0181 186.798 305.822 362.708 452.523 428.204C422.864 497.686 390.497 558.595 359.846 587.928C286.522 658.097 232.407 562.215 214.514 505.503C225.005 565.002 274.904 677.351 390.569 650.753C594.505 610.424 673.149 287.032 687.176 128.968C733.741 126.639 774.216 128.438 801.721 136.689C898.93 165.852 842.225 260.226 801.721 303.768C848.3 265.289 921.41 166.46 841.212 78.9716C705.12 -78.9931 383.52 13.1529 239.731 78.9716L306.468 161.817Z" fill="white" fill-opacity="0.1"/>
<defs>
<linearGradient id="paint0_linear_0_1" x1="-1.89026e-05" y1="42.3964" x2="966.871" y2="196.538" gradientUnits="userSpaceOnUse">
<stop stop-color="#3884FD"/>
<stop offset="1" stop-color="#162079"/>
</linearGradient>
</defs>
</svg>
