<svg width="99" height="99" viewBox="0 0 99 99" fill="none" xmlns="http://www.w3.org/2000/svg">
<circle cx="49.5" cy="49.5" r="49.5" fill="#F54545"/>
<path d="M56.6673 42C56.2305 43.3713 55.3318 44.4239 54.0597 45.0141C49.974 46.9096 47.0255 49.9953 45.2141 54.2711C44.6502 55.6023 43.6444 56.5428 42.334 56.9999" stroke="white" stroke-width="3" stroke-linejoin="round"/>
<path d="M33.734 65.9999L31.584 68.2499M65.2673 33L67.4173 30.75" stroke="white" stroke-width="3" stroke-linecap="round" stroke-linejoin="round"/>
<path d="M59.8695 31.5391L57.1602 34.2637L64.0412 41.5321L66.6886 38.842C67.4832 37.8625 67.7265 37.1246 66.7373 35.7657L64.7561 33.5852L62.7476 31.5118C61.4637 30.3067 60.4525 30.9551 59.8695 31.5391Z" stroke="white" stroke-width="3" stroke-linecap="round" stroke-linejoin="round"/>
<path d="M53.1017 34.0438C55.0916 31.8429 56.4543 33.4093 57.1541 34.2816L63.9763 41.4496C64.8253 42.162 66.3787 43.5288 64.3256 45.6571C63.9944 46.0005 63.6695 46.3602 63.3096 46.6701C61.9803 47.8144 60.7047 46.8657 60.0287 45.9942L53.0847 38.7273C52.3535 38.04 51.0902 36.7947 52.1572 35.1301C52.4447 34.7459 52.7812 34.3983 53.1017 34.0438Z" stroke="white" stroke-width="3" stroke-linecap="round" stroke-linejoin="round"/>
<path d="M36.2216 67.5375L34.1767 65.4223L32.2346 63.2808C31.0822 62.0746 31.7471 60.8686 32.3162 60.27L34.9716 57.4876L41.8813 64.7501L39.1616 67.5459C38.2105 68.3581 37.5583 68.6071 36.2791 67.5459M39.1526 53.1078C38.4528 52.2356 37.09 50.669 35.1001 52.8701C34.7797 53.2245 34.4432 53.5721 34.1556 53.9563C33.0887 55.6209 34.3519 56.8661 35.083 57.5535L42.0271 64.8204C42.7031 65.6919 43.9787 66.6406 45.3079 65.4963C45.668 65.1862 45.9928 64.8268 46.3241 64.4833C48.3771 62.355 46.8238 60.9883 45.9747 60.2758L39.1526 53.1078Z" stroke="white" stroke-width="3" stroke-linecap="round" stroke-linejoin="round"/>
</svg>
